<svg xmlns="http://www.w3.org/2000/svg" width="1500" height="500" viewBox="0 0 1500 500">
  <defs>
    <radialGradient id="bg" cx="35%" cy="25%" r="95%"><stop offset="0%" stop-color="#0a241c"/><stop offset="55%" stop-color="#04120d"/><stop offset="100%" stop-color="#020906"/></radialGradient>
    <radialGradient id="glow" cx="50%" cy="50%" r="50%"><stop offset="0%" stop-color="#10b981" stop-opacity="0.5"/><stop offset="100%" stop-color="#10b981" stop-opacity="0"/></radialGradient>
    <radialGradient id="glow2" cx="50%" cy="50%" r="50%"><stop offset="0%" stop-color="#6366f1" stop-opacity="0.32"/><stop offset="100%" stop-color="#6366f1" stop-opacity="0"/></radialGradient>
    <linearGradient id="txt" x1="540" y1="200" x2="1000" y2="320" gradientUnits="userSpaceOnUse"><stop offset="0%" stop-color="#a7f3d0"/><stop offset="38%" stop-color="#10b981"/><stop offset="70%" stop-color="#06b6d4"/><stop offset="100%" stop-color="#6366f1"/></linearGradient>
    <linearGradient id="ring" x1="0" y1="0" x2="64" y2="64" gradientUnits="userSpaceOnUse"><stop offset="0%" stop-color="#a7f3d0"/><stop offset="32%" stop-color="#10b981"/><stop offset="66%" stop-color="#06b6d4"/><stop offset="100%" stop-color="#6366f1"/></linearGradient>
    <radialGradient id="face" cx="38%" cy="34%" r="75%"><stop offset="0%" stop-color="#0d2a24"/><stop offset="100%" stop-color="#04100c"/></radialGradient>
    <radialGradient id="glass" cx="42%" cy="38%" r="70%"><stop offset="0%" stop-color="#14b8a6" stop-opacity="0.55"/><stop offset="55%" stop-color="#0b3b34" stop-opacity="0.65"/><stop offset="100%" stop-color="#02110d"/></radialGradient>
    <linearGradient id="sheen" x1="18" y1="14" x2="40" y2="34" gradientUnits="userSpaceOnUse"><stop offset="0%" stop-color="#ffffff" stop-opacity="0.9"/><stop offset="100%" stop-color="#ffffff" stop-opacity="0"/></linearGradient>
    <linearGradient id="key" x1="0" y1="0" x2="0" y2="1"><stop offset="0%" stop-color="#d1fae5"/><stop offset="100%" stop-color="#5eead4"/></linearGradient>
    <pattern id="grid" width="48" height="48" patternUnits="userSpaceOnUse"><path d="M48 0H0V48" fill="none" stroke="#5eead4" stroke-opacity="0.05" stroke-width="1"/></pattern>
  </defs>
  <rect width="1500" height="500" fill="url(#bg)"/>
  <rect width="1500" height="500" fill="url(#grid)"/>
  <circle cx="300" cy="200" r="270" fill="url(#glow)"/>
  <circle cx="1320" cy="440" r="320" fill="url(#glow2)"/>
  <g transform="translate(192 77) scale(4.0)">
    <circle cx="32" cy="32" r="29.5" fill="url(#face)" stroke="url(#ring)" stroke-width="3.5"/>
    <circle cx="32" cy="32" r="29.5" fill="none" stroke="url(#sheen)" stroke-width="1.1" opacity="0.7"/>
    <circle cx="32" cy="32" r="24" fill="none" stroke="url(#ring)" stroke-width="1" stroke-dasharray="1.5 4.5" stroke-linecap="round" opacity="0.55"/>
    <circle cx="32" cy="32" r="14.5" fill="url(#glass)" stroke="url(#ring)" stroke-width="2"/>
    <polygon points="41.00,32.00 36.50,39.79 27.50,39.79 23.00,32.00 27.50,24.21 36.50,24.21" fill="none" stroke="url(#ring)" stroke-width="1" opacity="0.6"/>
    <circle cx="32" cy="30" r="2.7" fill="url(#key)"/><path d="M30.1 31.6 L33.9 31.6 L33 37.2 L31 37.2 Z" fill="url(#key)"/>
    <path d="M23.5 27 A 11 11 0 0 1 35 21.5" fill="none" stroke="#ffffff" stroke-opacity="0.55" stroke-width="1.8" stroke-linecap="round"/>
    <path d="M46 13.6 L46.9 16.1 L49.4 17 L46.9 17.9 L46 20.4 L45.1 17.9 L42.6 17 L45.1 16.1 Z" fill="#ecfeff"/>
  </g>
  <g font-family="DejaVu Sans">
    <text x="542" y="138" font-size="23" letter-spacing="4" fill="#7cf3d4" font-weight="bold">THE NET-WORTH TRACKER THAT PAYS YOU TO USE IT</text>
    <text x="536" y="270" font-size="118" font-weight="bold" fill="url(#txt)" letter-spacing="-2">$LENZ</text>
    <text x="542" y="332" font-size="38" font-weight="bold" fill="#eef7f2">Use the app. Earn $LENZ — on Sui.</text>
    <text x="542" y="392" font-size="27" fill="#9fb6ad">Join the waitlist  →  walletlens.live/airdrop</text>
    <text x="542" y="438" font-size="25" font-weight="bold" fill="#5eead4">@wallet_lens</text>
  </g>
</svg>