<svg xmlns="http://www.w3.org/2000/svg" viewBox="0 0 1200 630" width="1200" height="630">
  <defs>
    <!-- Background gradient -->
    <linearGradient id="bg" x1="0%" y1="0%" x2="100%" y2="100%">
      <stop offset="0%" style="stop-color:#040d0a"/>
      <stop offset="50%" style="stop-color:#061410"/>
      <stop offset="100%" style="stop-color:#02080a"/>
    </linearGradient>

    <!-- Green glow gradient -->
    <radialGradient id="glow1" cx="30%" cy="50%" r="50%">
      <stop offset="0%" style="stop-color:#00ff8820;stop-opacity:1"/>
      <stop offset="100%" style="stop-color:#00000000;stop-opacity:0"/>
    </radialGradient>
    <radialGradient id="glow2" cx="80%" cy="30%" r="40%">
      <stop offset="0%" style="stop-color:#00c87315;stop-opacity:1"/>
      <stop offset="100%" style="stop-color:#00000000;stop-opacity:0"/>
    </radialGradient>

    <!-- Logo ring gradient -->
    <linearGradient id="ring" x1="0%" y1="0%" x2="100%" y2="100%">
      <stop offset="0%" style="stop-color:#34d399"/>
      <stop offset="100%" style="stop-color:#059669"/>
    </linearGradient>

    <!-- Chart line gradient -->
    <linearGradient id="chartFill" x1="0%" y1="0%" x2="0%" y2="100%">
      <stop offset="0%" style="stop-color:#34d39940"/>
      <stop offset="100%" style="stop-color:#34d39900"/>
    </linearGradient>

    <!-- Card gradient -->
    <linearGradient id="card1" x1="0%" y1="0%" x2="100%" y2="100%">
      <stop offset="0%" style="stop-color:#0d2018"/>
      <stop offset="100%" style="stop-color:#071410"/>
    </linearGradient>

    <filter id="blur1">
      <feGaussianBlur stdDeviation="40"/>
    </filter>
    <filter id="blur2">
      <feGaussianBlur stdDeviation="2"/>
    </filter>
    <filter id="glow-text">
      <feGaussianBlur stdDeviation="8" result="blur"/>
      <feMerge><feMergeNode in="blur"/><feMergeNode in="SourceGraphic"/></feMerge>
    </filter>
  </defs>

  <!-- Background -->
  <rect width="1200" height="630" fill="url(#bg)"/>

  <!-- Ambient glows -->
  <rect width="1200" height="630" fill="url(#glow1)" filter="url(#blur1)"/>
  <rect width="1200" height="630" fill="url(#glow2)" filter="url(#blur1)"/>

  <!-- Grid lines -->
  <g opacity="0.04" stroke="#34d399" stroke-width="1">
    <line x1="0" y1="105" x2="1200" y2="105"/>
    <line x1="0" y1="210" x2="1200" y2="210"/>
    <line x1="0" y1="315" x2="1200" y2="315"/>
    <line x1="0" y1="420" x2="1200" y2="420"/>
    <line x1="0" y1="525" x2="1200" y2="525"/>
    <line x1="150" y1="0" x2="150" y2="630"/>
    <line x1="300" y1="0" x2="300" y2="630"/>
    <line x1="450" y1="0" x2="450" y2="630"/>
    <line x1="600" y1="0" x2="600" y2="630"/>
    <line x1="750" y1="0" x2="750" y2="630"/>
    <line x1="900" y1="0" x2="900" y2="630"/>
    <line x1="1050" y1="0" x2="1050" y2="630"/>
  </g>

  <!-- Particle dots -->
  <g fill="#34d399" opacity="0.3">
    <circle cx="80" cy="90" r="2"/>
    <circle cx="220" cy="160" r="1.5"/>
    <circle cx="350" cy="60" r="2.5"/>
    <circle cx="500" cy="180" r="1.5"/>
    <circle cx="1050" cy="100" r="2"/>
    <circle cx="1120" cy="200" r="1.5"/>
    <circle cx="980" cy="520" r="2"/>
    <circle cx="150" cy="500" r="1.5"/>
    <circle cx="60" cy="400" r="2"/>
    <circle cx="1150" cy="450" r="1.5"/>
    <circle cx="700" cy="580" r="2"/>
    <circle cx="400" cy="550" r="1.5"/>
  </g>

  <!-- ══ LEFT SIDE: Branding ══ -->

  <!-- Logo orb -->
  <circle cx="130" cy="180" r="52" fill="none" stroke="url(#ring)" stroke-width="2.5" opacity="0.6"/>
  <circle cx="130" cy="180" r="40" fill="none" stroke="url(#ring)" stroke-width="1.5" opacity="0.3"/>
  <circle cx="130" cy="180" r="28" fill="#0d2018" stroke="url(#ring)" stroke-width="2"/>
  <!-- Lens icon -->
  <circle cx="130" cy="178" r="12" fill="none" stroke="#34d399" stroke-width="2.5"/>
  <line x1="140" y1="188" x2="148" y2="196" stroke="#34d399" stroke-width="2.5" stroke-linecap="round"/>
  <circle cx="130" cy="178" r="5" fill="#34d399" opacity="0.8"/>

  <!-- WalletLens wordmark -->
  <text x="200" y="165" font-family="'Helvetica Neue', Arial, sans-serif" font-weight="800" font-size="52" fill="white" letter-spacing="-1">Wallet</text>
  <text x="200" y="165" font-family="'Helvetica Neue', Arial, sans-serif" font-weight="800" font-size="52" fill="url(#ring)" letter-spacing="-1" x="455">Lens</text>
  <!-- hack: use tspan -->
  <text x="200" y="165" font-family="'Helvetica Neue', Arial, sans-serif" font-weight="800" font-size="52" fill="white" letter-spacing="-1">
    <tspan fill="white">Wallet</tspan><tspan fill="#34d399">Lens</tspan>
  </text>

  <!-- Tagline -->
  <text x="200" y="200" font-family="'Helvetica Neue', Arial, sans-serif" font-weight="400" font-size="18" fill="#34d399" opacity="0.8" letter-spacing="3">YOUR CRYPTO. YOUR CONTROL.</text>

  <!-- URL badge -->
  <rect x="200" y="220" width="180" height="32" rx="16" fill="#34d39918" stroke="#34d399" stroke-width="1" opacity="0.6"/>
  <text x="290" y="241" font-family="'Helvetica Neue', Arial, sans-serif" font-size="14" fill="#34d399" text-anchor="middle" font-weight="600">walletlens.cc</text>

  <!-- Headline -->
  <text x="80" y="310" font-family="'Helvetica Neue', Arial, sans-serif" font-weight="800" font-size="46" fill="white" letter-spacing="-1">Stop Guessing.</text>
  <text x="80" y="365" font-family="'Helvetica Neue', Arial, sans-serif" font-weight="800" font-size="46" fill="#34d399" letter-spacing="-1" filter="url(#glow-text)">Start Knowing.</text>

  <!-- Sub-headline -->
  <text x="80" y="410" font-family="'Helvetica Neue', Arial, sans-serif" font-size="17" fill="rgba(255,255,255,0.6)" font-weight="400">AI-powered portfolio tracker · Risk scanner · Whale signals</text>
  <text x="80" y="435" font-family="'Helvetica Neue', Arial, sans-serif" font-size="17" fill="rgba(255,255,255,0.6)" font-weight="400">100% free · No account needed · Fully private</text>

  <!-- Feature pills -->
  <g font-family="'Helvetica Neue', Arial, sans-serif" font-size="13" font-weight="600">
    <rect x="80" y="460" width="110" height="30" rx="15" fill="#34d39920" stroke="#34d399" stroke-width="1"/>
    <text x="135" y="480" text-anchor="middle" fill="#34d399">🧠 AI Advisor</text>

    <rect x="202" y="460" width="110" height="30" rx="15" fill="#34d39920" stroke="#34d399" stroke-width="1"/>
    <text x="257" y="480" text-anchor="middle" fill="#34d399">🐋 Whale Alerts</text>

    <rect x="324" y="460" width="110" height="30" rx="15" fill="#34d39920" stroke="#34d399" stroke-width="1"/>
    <text x="379" y="480" text-anchor="middle" fill="#34d399">📊 Risk Scanner</text>

    <rect x="80" y="502" width="110" height="30" rx="15" fill="#34d39920" stroke="#34d399" stroke-width="1"/>
    <text x="135" y="522" text-anchor="middle" fill="#34d399">🎯 Sell Targets</text>

    <rect x="202" y="502" width="120" height="30" rx="15" fill="#34d39920" stroke="#34d399" stroke-width="1"/>
    <text x="262" y="522" text-anchor="middle" fill="#34d399">📰 News Ticker</text>

    <rect x="334" y="502" width="100" height="30" rx="15" fill="#34d39920" stroke="#34d399" stroke-width="1"/>
    <text x="384" y="522" text-anchor="middle" fill="#34d399">🔒 Private</text>
  </g>

  <!-- CTA button -->
  <rect x="80" y="558" width="200" height="48" rx="24" fill="#34d399"/>
  <text x="180" y="588" font-family="'Helvetica Neue', Arial, sans-serif" font-weight="700" font-size="17" fill="#030d0a" text-anchor="middle">Start for Free →</text>

  <!-- ══ RIGHT SIDE: Mock Dashboard ══ -->
  <rect x="560" y="30" width="610" height="570" rx="20" fill="#040d0a" opacity="0.6"/>

  <!-- Dashboard card: Portfolio value -->
  <rect x="580" y="50" width="570" height="120" rx="14" fill="url(#card1)" stroke="#34d39920" stroke-width="1"/>
  <text x="610" y="85" font-family="'Helvetica Neue', Arial, sans-serif" font-size="13" fill="rgba(255,255,255,0.45)" font-weight="500">TOTAL PORTFOLIO VALUE</text>
  <text x="610" y="125" font-family="'Helvetica Neue', Arial, sans-serif" font-size="42" fill="white" font-weight="700">$48,320.14</text>
  <text x="610" y="152" font-family="'Helvetica Neue', Arial, sans-serif" font-size="14" fill="#34d399" font-weight="600">↑ $3,241.88 (+7.19%) all time</text>

  <!-- Live badge -->
  <rect x="1070" y="62" width="60" height="24" rx="12" fill="#34d399"/>
  <text x="1100" y="79" font-family="'Helvetica Neue', Arial, sans-serif" font-size="12" fill="#030d0a" font-weight="700" text-anchor="middle">● LIVE</text>

  <!-- Stats row -->
  <rect x="580" y="186" width="132" height="72" rx="12" fill="url(#card1)" stroke="#34d39918" stroke-width="1"/>
  <text x="646" y="210" font-family="'Helvetica Neue', Arial, sans-serif" font-size="11" fill="rgba(255,255,255,0.4)" text-anchor="middle">INVESTED</text>
  <text x="646" y="240" font-family="'Helvetica Neue', Arial, sans-serif" font-size="20" fill="white" font-weight="700" text-anchor="middle">$45,078</text>

  <rect x="724" y="186" width="132" height="72" rx="12" fill="url(#card1)" stroke="#34d39918" stroke-width="1"/>
  <text x="790" y="210" font-family="'Helvetica Neue', Arial, sans-serif" font-size="11" fill="rgba(255,255,255,0.4)" text-anchor="middle">P&amp;L</text>
  <text x="790" y="240" font-family="'Helvetica Neue', Arial, sans-serif" font-size="20" fill="#34d399" font-weight="700" text-anchor="middle">+$3,242</text>

  <rect x="868" y="186" width="132" height="72" rx="12" fill="url(#card1)" stroke="#34d39918" stroke-width="1"/>
  <text x="934" y="210" font-family="'Helvetica Neue', Arial, sans-serif" font-size="11" fill="rgba(255,255,255,0.4)" text-anchor="middle">ASSETS</text>
  <text x="934" y="240" font-family="'Helvetica Neue', Arial, sans-serif" font-size="20" fill="white" font-weight="700" text-anchor="middle">10</text>

  <rect x="1012" y="186" width="138" height="72" rx="12" fill="url(#card1)" stroke="#34d39918" stroke-width="1"/>
  <text x="1081" y="210" font-family="'Helvetica Neue', Arial, sans-serif" font-size="11" fill="rgba(255,255,255,0.4)" text-anchor="middle">TRADES</text>
  <text x="1081" y="240" font-family="'Helvetica Neue', Arial, sans-serif" font-size="20" fill="white" font-weight="700" text-anchor="middle">114</text>

  <!-- Chart -->
  <rect x="580" y="272" width="570" height="160" rx="14" fill="url(#card1)" stroke="#34d39918" stroke-width="1"/>
  <text x="610" y="298" font-family="'Helvetica Neue', Arial, sans-serif" font-size="13" fill="white" font-weight="600">Performance</text>

  <!-- Area chart path -->
  <path d="M600 400 L640 385 L680 390 L720 375 L760 360 L800 368 L840 350 L880 338 L920 345 L960 320 L1000 310 L1040 295 L1080 300 L1120 285 L1140 278 L1140 420 L600 420 Z"
        fill="url(#chartFill)" opacity="0.8"/>
  <path d="M600 400 L640 385 L680 390 L720 375 L760 360 L800 368 L840 350 L880 338 L920 345 L960 320 L1000 310 L1040 295 L1080 300 L1120 285 L1140 278"
        fill="none" stroke="#34d399" stroke-width="2.5" stroke-linecap="round" stroke-linejoin="round"/>

  <!-- Chart endpoint dot -->
  <circle cx="1140" cy="278" r="5" fill="#34d399"/>
  <circle cx="1140" cy="278" r="9" fill="#34d39930"/>

  <!-- Holdings list -->
  <rect x="580" y="446" width="570" height="144" rx="14" fill="url(#card1)" stroke="#34d39918" stroke-width="1"/>
  <text x="610" y="472" font-family="'Helvetica Neue', Arial, sans-serif" font-size="13" fill="white" font-weight="600">Holdings (10)</text>

  <!-- Holding rows -->
  <g font-family="'Helvetica Neue', Arial, sans-serif">
    <!-- BTC row -->
    <circle cx="625" cy="498" r="14" fill="#f7931a22"/>
    <text x="625" y="503" font-size="12" fill="#f7931a" text-anchor="middle">₿</text>
    <text x="650" y="495" font-size="13" fill="white" font-weight="600">BTC</text>
    <text x="650" y="511" font-size="11" fill="rgba(255,255,255,0.4)">$83,420 · 0.218 units</text>
    <text x="1140" y="495" font-size="13" fill="white" font-weight="600" text-anchor="end">$18,185</text>
    <text x="1140" y="511" font-size="11" fill="#34d399" text-anchor="end">+$2,100 (+13.1%)</text>

    <!-- ETH row -->
    <circle cx="625" cy="536" r="14" fill="#627eea22"/>
    <text x="625" y="541" font-size="11" fill="#627eea" text-anchor="middle">Ξ</text>
    <text x="650" y="533" font-size="13" fill="white" font-weight="600">ETH</text>
    <text x="650" y="549" font-size="11" fill="rgba(255,255,255,0.4)">$2,840 · 3.5 units</text>
    <text x="1140" y="533" font-size="13" fill="white" font-weight="600" text-anchor="end">$9,940</text>
    <text x="1140" y="549" font-size="11" fill="#34d399" text-anchor="end">+$640 (+6.9%)</text>

    <!-- SOL row -->
    <circle cx="625" cy="574" r="14" fill="#9945ff22"/>
    <text x="625" y="579" font-size="10" fill="#9945ff" text-anchor="middle">◎</text>
    <text x="650" y="571" font-size="13" fill="white" font-weight="600">SOL</text>
    <text x="650" y="587" font-size="11" fill="rgba(255,255,255,0.4)">$148.5 · 60 units</text>
    <text x="1140" y="571" font-size="13" fill="white" font-weight="600" text-anchor="end">$8,910</text>
    <text x="1140" y="587" font-size="11" fill="#f87171" text-anchor="end">-$190 (-2.1%)</text>
  </g>

  <!-- Dividers between rows -->
  <line x1="600" y1="518" x2="1140" y2="518" stroke="#34d39910" stroke-width="1"/>
  <line x1="600" y1="556" x2="1140" y2="556" stroke="#34d39910" stroke-width="1"/>

  <!-- Price ticker strip at top -->
  <rect x="0" y="0" width="1200" height="28" fill="#061a12"/>
  <g font-family="'Helvetica Neue', Arial, sans-serif" font-size="11.5" font-weight="500">
    <text x="30" y="18" fill="rgba(255,255,255,0.5)">BTC</text>
    <text x="58" y="18" fill="white">$83,420</text>
    <text x="118" y="18" fill="#34d399">▲2.57%</text>
    <text x="180" y="18" fill="rgba(255,255,255,0.5)">ETH</text>
    <text x="208" y="18" fill="white">$2,840</text>
    <text x="262" y="18" fill="#34d399">▲1.79%</text>
    <text x="324" y="18" fill="rgba(255,255,255,0.5)">SOL</text>
    <text x="352" y="18" fill="white">$148.5</text>
    <text x="406" y="18" fill="#f87171">▼0.43%</text>
    <text x="468" y="18" fill="rgba(255,255,255,0.5)">XRP</text>
    <text x="496" y="18" fill="white">$2.18</text>
    <text x="534" y="18" fill="#34d399">▲4.12%</text>
    <text x="596" y="18" fill="rgba(255,255,255,0.5)">BNB</text>
    <text x="624" y="18" fill="white">$683</text>
    <text x="662" y="18" fill="#34d399">▲1.55%</text>
    <text x="720" y="18" fill="rgba(255,255,255,0.5)">ADA</text>
    <text x="748" y="18" fill="white">$0.72</text>
    <text x="786" y="18" fill="#f87171">▼0.81%</text>
    <text x="848" y="18" fill="rgba(255,255,255,0.5)">DOGE</text>
    <text x="886" y="18" fill="white">$0.182</text>
    <text x="934" y="18" fill="#34d399">▲3.22%</text>
    <text x="996" y="18" fill="rgba(255,255,255,0.5)">AVAX</text>
    <text x="1036" y="18" fill="white">$35.4</text>
    <text x="1076" y="18" fill="#34d399">▲0.97%</text>
    <text x="1138" y="18" fill="rgba(255,255,255,0.5)">DOT</text>
    <text x="1162" y="18" fill="white">$6.80</text>
  </g>

  <!-- Bottom border glow -->
  <rect x="0" y="625" width="1200" height="5" fill="url(#ring)" opacity="0.5"/>
</svg>
