<svg xmlns="http://www.w3.org/2000/svg" viewBox="0 0 1200 630" width="1200" height="630">
  <defs>
    <linearGradient id="bg" x1="0%" y1="0%" x2="100%" y2="100%">
      <stop offset="0%" style="stop-color:#040e08"/>
      <stop offset="60%" style="stop-color:#061410"/>
      <stop offset="100%" style="stop-color:#030b06"/>
    </linearGradient>

    <radialGradient id="glow1" cx="25%" cy="55%" r="55%">
      <stop offset="0%" style="stop-color:#00c85328;stop-opacity:1"/>
      <stop offset="100%" style="stop-color:#00000000;stop-opacity:0"/>
    </radialGradient>
    <radialGradient id="glow2" cx="75%" cy="35%" r="40%">
      <stop offset="0%" style="stop-color:#00c85312;stop-opacity:1"/>
      <stop offset="100%" style="stop-color:#00000000;stop-opacity:0"/>
    </radialGradient>

    <linearGradient id="ring" x1="0%" y1="0%" x2="100%" y2="100%">
      <stop offset="0%" style="stop-color:#34d399"/>
      <stop offset="100%" style="stop-color:#059669"/>
    </linearGradient>

    <linearGradient id="chartFill" x1="0%" y1="0%" x2="0%" y2="100%">
      <stop offset="0%" style="stop-color:#34d39930"/>
      <stop offset="100%" style="stop-color:#34d39900"/>
    </linearGradient>
    <linearGradient id="chartFill2" x1="0%" y1="0%" x2="0%" y2="100%">
      <stop offset="0%" style="stop-color:#34d39918"/>
      <stop offset="100%" style="stop-color:#34d39900"/>
    </linearGradient>

    <linearGradient id="card1" x1="0%" y1="0%" x2="100%" y2="100%">
      <stop offset="0%" style="stop-color:#0d2018"/>
      <stop offset="100%" style="stop-color:#071410"/>
    </linearGradient>

    <linearGradient id="btnGrad" x1="0%" y1="0%" x2="100%" y2="0%">
      <stop offset="0%" style="stop-color:#34d399"/>
      <stop offset="100%" style="stop-color:#10b981"/>
    </linearGradient>

    <filter id="blur1">
      <feGaussianBlur stdDeviation="45"/>
    </filter>
    <filter id="glow-text">
      <feGaussianBlur stdDeviation="10" result="blur"/>
      <feMerge><feMergeNode in="blur"/><feMergeNode in="SourceGraphic"/></feMerge>
    </filter>
  </defs>

  <!-- Background -->
  <rect width="1200" height="630" fill="url(#bg)"/>

  <!-- Ambient glows -->
  <rect width="1200" height="630" fill="url(#glow1)" filter="url(#blur1)"/>
  <rect width="1200" height="630" fill="url(#glow2)" filter="url(#blur1)"/>

  <!-- Subtle grid -->
  <g opacity="0.03" stroke="#34d399" stroke-width="1">
    <line x1="0" y1="157" x2="1200" y2="157"/>
    <line x1="0" y1="314" x2="1200" y2="314"/>
    <line x1="0" y1="471" x2="1200" y2="471"/>
    <line x1="200" y1="0" x2="200" y2="630"/>
    <line x1="400" y1="0" x2="400" y2="630"/>
    <line x1="600" y1="0" x2="600" y2="630"/>
    <line x1="800" y1="0" x2="800" y2="630"/>
    <line x1="1000" y1="0" x2="1000" y2="630"/>
  </g>

  <!-- Background chart curves (full-width, like landing page) -->
  <path d="M0 520 C80 510 160 530 260 505 C360 480 440 490 540 465 C640 440 720 455 820 420 C920 385 1000 400 1100 370 L1200 355 L1200 630 L0 630 Z"
        fill="url(#chartFill2)" opacity="0.7"/>
  <path d="M0 520 C80 510 160 530 260 505 C360 480 440 490 540 465 C640 440 720 455 820 420 C920 385 1000 400 1100 370 L1200 355"
        fill="none" stroke="#34d399" stroke-width="1.5" opacity="0.25" stroke-linecap="round" stroke-linejoin="round"/>

  <path d="M0 570 C100 555 200 568 320 545 C440 522 520 538 640 510 C760 482 860 500 980 468 C1060 450 1130 458 1200 440 L1200 630 L0 630 Z"
        fill="url(#chartFill)" opacity="0.5"/>
  <path d="M0 570 C100 555 200 568 320 545 C440 522 520 538 640 510 C760 482 860 500 980 468 C1060 450 1130 458 1200 440"
        fill="none" stroke="#34d399" stroke-width="1" opacity="0.18" stroke-linecap="round" stroke-linejoin="round"/>

  <!-- Particles -->
  <g fill="#34d399" opacity="0.25">
    <circle cx="70" cy="120" r="1.5"/>
    <circle cx="180" cy="80" r="2"/>
    <circle cx="310" cy="140" r="1.5"/>
    <circle cx="440" cy="60" r="2"/>
    <circle cx="1080" cy="90" r="2"/>
    <circle cx="1150" cy="180" r="1.5"/>
    <circle cx="50" cy="430" r="1.5"/>
    <circle cx="500" cy="200" r="1.5"/>
  </g>

  <!-- ══ LEFT SIDE ══ -->

  <!-- Logo -->
  <g transform="translate(64, 68)">
    <!-- Outer rings -->
    <circle cx="36" cy="36" r="34" fill="none" stroke="url(#ring)" stroke-width="2" opacity="0.5"/>
    <circle cx="36" cy="36" r="24" fill="#0d2018" stroke="url(#ring)" stroke-width="1.5"/>
    <!-- Lens icon -->
    <g fill="none" transform="translate(36 36) scale(0.62) translate(-25 -30.5)">
      <circle cx="27" cy="25" r="19" stroke="#34d399" stroke-width="5"/>
      <circle cx="40.5" cy="11.5" r="3.8" fill="#6ee7b7"/>
      <rect x="14.5" y="26.5" width="5" height="7.5" rx="1.2" fill="#34d399"/>
      <rect x="21.5" y="21" width="5" height="13" rx="1.2" fill="#34d399"/>
      <rect x="28.5" y="15.5" width="5" height="18.5" rx="1.2" fill="#34d399"/>
      <line x1="13.5" y1="39" x2="4" y2="55" stroke="#34d399" stroke-width="5" stroke-linecap="round"/>
    </g>
  </g>

  <!-- Wordmark -->
  <text x="118" y="96" font-family="'Helvetica Neue', Arial, sans-serif" font-weight="800" font-size="42" letter-spacing="-0.5">
    <tspan fill="white">WalletLens</tspan><tspan fill="#34d399">.live</tspan>
  </text>

  <!-- Tagline -->
  <text x="118" y="122" font-family="'Helvetica Neue', Arial, sans-serif" font-weight="600" font-size="13" fill="#34d399" opacity="0.85" letter-spacing="3.5">SEE YOUR WEALTH CLEARLY</text>

  <!-- TRACK | ANALYZE | GROW -->
  <g font-family="'Helvetica Neue', Arial, sans-serif" font-size="12" font-weight="600" fill="rgba(255,255,255,0.45)" letter-spacing="1.5">
    <text x="118" y="152">TRACK</text>
    <text x="179" y="152" fill="rgba(255,255,255,0.2)">|</text>
    <text x="190" y="152">ANALYZE</text>
    <text x="268" y="152" fill="rgba(255,255,255,0.2)">|</text>
    <text x="279" y="152">GROW</text>
  </g>

  <!-- Headline line 1 -->
  <text x="64" y="245" font-family="'Helvetica Neue', Arial, sans-serif" font-weight="800" font-size="50" fill="white" letter-spacing="-1.5">You deserve to know</text>
  <!-- Headline line 2 -->
  <text x="64" y="305" font-family="'Helvetica Neue', Arial, sans-serif" font-weight="800" font-size="50" fill="#34d399" letter-spacing="-1.5" filter="url(#glow-text)">your real P&amp;L in seconds.</text>

  <!-- Body copy -->
  <text x="64" y="348" font-family="'Helvetica Neue', Arial, sans-serif" font-size="16" fill="rgba(255,255,255,0.58)" font-weight="400" letter-spacing="0.1">Most investors are flying blind — guessing P&amp;L, missing rug pulls,</text>
  <text x="64" y="370" font-family="'Helvetica Neue', Arial, sans-serif" font-size="16" fill="rgba(255,255,255,0.58)" font-weight="400" letter-spacing="0.1">holding underwater positions without a plan.</text>

  <!-- Privacy note -->
  <text x="64" y="406" font-family="'Helvetica Neue', Arial, sans-serif" font-size="13.5" fill="rgba(255,255,255,0.35)" font-weight="500" letter-spacing="0.2">Free · Private · No account needed · Your data never leaves your device.</text>

  <!-- CTA button -->
  <rect x="64" y="432" width="226" height="50" rx="25" fill="url(#btnGrad)"/>
  <text x="177" y="463" font-family="'Helvetica Neue', Arial, sans-serif" font-weight="700" font-size="16" fill="#040e08" text-anchor="middle" letter-spacing="0.2">Track your net worth →</text>

  <!-- walletlens.live pill -->
  <rect x="64" y="502" width="160" height="30" rx="15" fill="#34d39914" stroke="#34d39940" stroke-width="1"/>
  <text x="144" y="522" font-family="'Helvetica Neue', Arial, sans-serif" font-size="13" fill="#34d399" text-anchor="middle" font-weight="600">walletlens.live</text>

  <!-- ══ RIGHT SIDE: Dashboard mockup ══ -->
  <!-- Outer container -->
  <rect x="570" y="28" width="602" height="574" rx="18" fill="#040e08" opacity="0.55"/>

  <!-- Price ticker strip -->
  <rect x="570" y="28" width="602" height="26" rx="0" fill="#061a12"/>
  <rect x="570" y="28" width="602" height="26" rx="18" fill="#061a12"/>
  <rect x="570" y="40" width="602" height="14" fill="#061a12"/>
  <g font-family="'Helvetica Neue', Arial, sans-serif" font-size="11" font-weight="500">
    <text x="590" y="45" fill="rgba(255,255,255,0.45)">BTC</text>
    <text x="616" y="45" fill="white">$83,420</text>
    <text x="670" y="45" fill="#34d399">▲2.6%</text>
    <text x="720" y="45" fill="rgba(255,255,255,0.45)">ETH</text>
    <text x="746" y="45" fill="white">$2,840</text>
    <text x="798" y="45" fill="#34d399">▲1.8%</text>
    <text x="848" y="45" fill="rgba(255,255,255,0.45)">SOL</text>
    <text x="874" y="45" fill="white">$148</text>
    <text x="912" y="45" fill="#f87171">▼0.4%</text>
    <text x="962" y="45" fill="rgba(255,255,255,0.45)">XRP</text>
    <text x="988" y="45" fill="white">$2.18</text>
    <text x="1032" y="45" fill="#34d399">▲4.1%</text>
    <text x="1082" y="45" fill="rgba(255,255,255,0.45)">BNB</text>
    <text x="1108" y="45" fill="white">$683</text>
    <text x="1146" y="45" fill="#34d399">▲1.6%</text>
  </g>

  <!-- Portfolio value card -->
  <rect x="588" y="66" width="566" height="118" rx="13" fill="url(#card1)" stroke="#34d39918" stroke-width="1"/>
  <text x="616" y="98" font-family="'Helvetica Neue', Arial, sans-serif" font-size="11.5" fill="rgba(255,255,255,0.4)" font-weight="600" letter-spacing="1">TOTAL PORTFOLIO VALUE</text>
  <text x="616" y="140" font-family="'Helvetica Neue', Arial, sans-serif" font-size="40" fill="white" font-weight="700" letter-spacing="-1">$48,320.14</text>
  <text x="616" y="164" font-family="'Helvetica Neue', Arial, sans-serif" font-size="13.5" fill="#34d399" font-weight="600">↑ $3,241.88 (+7.19%) all time</text>
  <!-- LIVE badge -->
  <rect x="1076" y="78" width="58" height="22" rx="11" fill="#34d399"/>
  <text x="1105" y="93" font-family="'Helvetica Neue', Arial, sans-serif" font-size="11" fill="#040e08" font-weight="700" text-anchor="middle">● LIVE</text>

  <!-- Stats row -->
  <rect x="588" y="198" width="130" height="66" rx="11" fill="url(#card1)" stroke="#34d39914" stroke-width="1"/>
  <text x="653" y="220" font-family="'Helvetica Neue', Arial, sans-serif" font-size="10.5" fill="rgba(255,255,255,0.38)" text-anchor="middle" letter-spacing="0.5">INVESTED</text>
  <text x="653" y="248" font-family="'Helvetica Neue', Arial, sans-serif" font-size="19" fill="white" font-weight="700" text-anchor="middle">$45,078</text>

  <rect x="728" y="198" width="130" height="66" rx="11" fill="url(#card1)" stroke="#34d39914" stroke-width="1"/>
  <text x="793" y="220" font-family="'Helvetica Neue', Arial, sans-serif" font-size="10.5" fill="rgba(255,255,255,0.38)" text-anchor="middle" letter-spacing="0.5">P&amp;L</text>
  <text x="793" y="248" font-family="'Helvetica Neue', Arial, sans-serif" font-size="19" fill="#34d399" font-weight="700" text-anchor="middle">+$3,242</text>

  <rect x="868" y="198" width="130" height="66" rx="11" fill="url(#card1)" stroke="#34d39914" stroke-width="1"/>
  <text x="933" y="220" font-family="'Helvetica Neue', Arial, sans-serif" font-size="10.5" fill="rgba(255,255,255,0.38)" text-anchor="middle" letter-spacing="0.5">ASSETS</text>
  <text x="933" y="248" font-family="'Helvetica Neue', Arial, sans-serif" font-size="19" fill="white" font-weight="700" text-anchor="middle">10</text>

  <rect x="1008" y="198" width="146" height="66" rx="11" fill="url(#card1)" stroke="#34d39914" stroke-width="1"/>
  <text x="1081" y="220" font-family="'Helvetica Neue', Arial, sans-serif" font-size="10.5" fill="rgba(255,255,255,0.38)" text-anchor="middle" letter-spacing="0.5">TRADES</text>
  <text x="1081" y="248" font-family="'Helvetica Neue', Arial, sans-serif" font-size="19" fill="white" font-weight="700" text-anchor="middle">114</text>

  <!-- Chart -->
  <rect x="588" y="278" width="566" height="148" rx="13" fill="url(#card1)" stroke="#34d39914" stroke-width="1"/>
  <text x="614" y="302" font-family="'Helvetica Neue', Arial, sans-serif" font-size="12.5" fill="white" font-weight="600">Performance</text>
  <path d="M608 390 L648 376 L688 382 L728 366 L768 350 L808 360 L848 342 L888 328 L928 336 L968 312 L1008 300 L1048 284 L1088 290 L1128 272 L1148 264 L1148 406 L608 406 Z"
        fill="url(#chartFill)" opacity="0.9"/>
  <path d="M608 390 L648 376 L688 382 L728 366 L768 350 L808 360 L848 342 L888 328 L928 336 L968 312 L1008 300 L1048 284 L1088 290 L1128 272 L1148 264"
        fill="none" stroke="#34d399" stroke-width="2.5" stroke-linecap="round" stroke-linejoin="round"/>
  <circle cx="1148" cy="264" r="4.5" fill="#34d399"/>
  <circle cx="1148" cy="264" r="8" fill="#34d39930"/>

  <!-- Holdings list -->
  <rect x="588" y="438" width="566" height="150" rx="13" fill="url(#card1)" stroke="#34d39914" stroke-width="1"/>
  <text x="614" y="462" font-family="'Helvetica Neue', Arial, sans-serif" font-size="12.5" fill="white" font-weight="600">Holdings (10)</text>
  <g font-family="'Helvetica Neue', Arial, sans-serif">
    <!-- BTC -->
    <circle cx="630" cy="490" r="13" fill="#f7931a1a"/>
    <text x="630" y="495" font-size="11.5" fill="#f7931a" text-anchor="middle">₿</text>
    <text x="653" y="487" font-size="12.5" fill="white" font-weight="600">BTC</text>
    <text x="653" y="502" font-size="10.5" fill="rgba(255,255,255,0.38)">$83,420 · 0.218 units</text>
    <text x="1144" y="487" font-size="12.5" fill="white" font-weight="600" text-anchor="end">$18,185</text>
    <text x="1144" y="502" font-size="10.5" fill="#34d399" text-anchor="end">+$2,100 (+13.1%)</text>
    <!-- ETH -->
    <circle cx="630" cy="528" r="13" fill="#627eea1a"/>
    <text x="630" y="533" font-size="10.5" fill="#627eea" text-anchor="middle">Ξ</text>
    <text x="653" y="525" font-size="12.5" fill="white" font-weight="600">ETH</text>
    <text x="653" y="540" font-size="10.5" fill="rgba(255,255,255,0.38)">$2,840 · 3.5 units</text>
    <text x="1144" y="525" font-size="12.5" fill="white" font-weight="600" text-anchor="end">$9,940</text>
    <text x="1144" y="540" font-size="10.5" fill="#34d399" text-anchor="end">+$640 (+6.9%)</text>
    <!-- SOL -->
    <circle cx="630" cy="566" r="13" fill="#9945ff1a"/>
    <text x="630" y="571" font-size="10" fill="#9945ff" text-anchor="middle">◎</text>
    <text x="653" y="563" font-size="12.5" fill="white" font-weight="600">SOL</text>
    <text x="653" y="578" font-size="10.5" fill="rgba(255,255,255,0.38)">$148.5 · 60 units</text>
    <text x="1144" y="563" font-size="12.5" fill="white" font-weight="600" text-anchor="end">$8,910</text>
    <text x="1144" y="578" font-size="10.5" fill="#f87171" text-anchor="end">-$190 (-2.1%)</text>
  </g>
  <line x1="608" y1="510" x2="1148" y2="510" stroke="#34d39910" stroke-width="1"/>
  <line x1="608" y1="548" x2="1148" y2="548" stroke="#34d39910" stroke-width="1"/>

  <!-- Bottom glow bar -->
  <rect x="0" y="626" width="1200" height="4" fill="url(#ring)" opacity="0.45"/>
</svg>
